{
	"asset":{
		"generator":"Khronos glTF Blender I/O v4.2.70",
		"version":"2.0"
	},
	"scene":0,
	"scenes":[
		{
			"name":"Scene",
			"nodes":[
				0
			]
		}
	],
	"nodes":[
		{
			"mesh":0,
			"name":"SocketAdapterHolder_V1-MAGNET 11.33.15\u202fam",
			"translation":[
				0,
				0,
				68.2672119140625
			]
		}
	],
	"meshes":[
		{
			"name":"SocketAdapterHolder_V1-MAGNET 11.33.15\u202fam",
			"primitives":[
				{
					"attributes":{
						"POSITION":0,
						"NORMAL":1
					},
					"indices":2
				}
			]
		}
	],
	"accessors":[
		{
			"bufferView":0,
			"componentType":5126,
			"count":26640,
			"max":[
				63,
				27,
				-21
			],
			"min":[
				-63,
				5.800000190734863,
				-105
			],
			"type":"VEC3"
		},
		{
			"bufferView":1,
			"componentType":5126,
			"count":26640,
			"type":"VEC3"
		},
		{
			"bufferView":2,
			"componentType":5123,
			"count":44127,
			"type":"SCALAR"
		}
	],
	"bufferViews":[
		{
			"buffer":0,
			"byteLength":319680,
			"byteOffset":0,
			"target":34962
		},
		{
			"buffer":0,
			"byteLength":319680,
			"byteOffset":319680,
			"target":34962
		},
		{
			"buffer":0,
			"byteLength":88254,
			"byteOffset":639360,
			"target":34963
		}
	],
	"buffers":[
		{
			"byteLength":727616,
			"uri":"SocketAdapterHolder.bin"
		}
	]
}
